<svg width="38" height="57" viewBox="0 0 38 57" fill="none" xmlns="http://www.w3.org/2000/svg">
<path d="M19 0C8.5236 0 0 8.52362 0 19C0 22.1451 0.786309 25.2634 2.28111 28.0292L17.961 56.3877C18.1697 56.7658 18.5675 57 19 57C19.4325 57 19.8303 56.7658 20.039 56.3877L35.7247 28.0198C37.2137 25.2634 38 22.1449 38 18.9999C38 8.52362 29.4764 0 19 0ZM19 28.5C13.7618 28.5 9.50006 24.2382 9.50006 19C9.50006 13.7618 13.7618 9.50007 19 9.50007C24.2382 9.50007 28.4999 13.7618 28.4999 19C28.4999 24.2382 24.2382 28.5 19 28.5Z" fill="#DA3414"/>
</svg>
