<svg width="115" height="19" viewBox="0 0 115 19" fill="none" xmlns="http://www.w3.org/2000/svg">
<path d="M2.2333 6.375C1.24997 6.375 0.758301 5.44167 0.758301 3.575C0.758301 3.05833 0.816634 2.54167 0.933301 2.025L1.2083 0.574999C3.1583 0.241666 4.79997 0.0749998 6.1333 0.0749998C6.7333 0.0749998 7.19997 0.283333 7.5333 0.699999C7.8833 1.11667 8.0833 1.56667 8.1333 2.05C8.1833 2.53333 8.2083 2.925 8.2083 3.225C8.2083 4.09167 8.14163 4.85 8.0083 5.5L7.8833 6.125C7.4833 6.125 7.19163 6.13333 7.0083 6.15L6.5333 14.2C6.9833 14.2167 7.3083 14.35 7.5083 14.6C7.72497 14.85 7.8333 15.1333 7.8333 15.45C7.8333 16.1833 7.69997 16.8667 7.4333 17.5L7.2583 17.875C5.9083 17.9583 4.47497 18 2.9583 18C2.5083 18 2.14163 17.8833 1.8583 17.65C1.59163 17.4167 1.42497 17.1417 1.3583 16.825C1.3083 16.5083 1.2833 16.2667 1.2833 16.1C1.2833 15.6 1.31663 15.2167 1.3833 14.95L1.4833 14.6L2.4833 14.475L2.2333 6.375ZM18.7423 0.824999C19.2256 0.325 20.0006 0.0749998 21.0673 0.0749998C22.1506 0.0749998 22.9173 0.308333 23.3673 0.775C23.8173 1.24167 24.0423 2.09167 24.0423 3.325C24.0423 4.54167 23.9006 6.8 23.6173 10.1C23.3506 13.4 23.2173 15.7667 23.2173 17.2C22.5506 17.7167 21.609 17.975 20.3923 17.975C19.8256 17.975 19.4423 17.8667 19.2423 17.65C17.7256 17.35 16.0756 14.1083 14.2923 7.925C14.1756 11.3917 14.1173 14.55 14.1173 17.4C13.8006 17.7833 13.0423 17.975 11.8423 17.975C10.659 17.975 10.0423 17.475 9.99229 16.475L9.19229 1.375C10.409 0.641666 11.5006 0.274999 12.4673 0.274999C12.9506 0.274999 13.334 0.358332 13.6173 0.524998C13.8506 0.458333 14.0673 0.425 14.2673 0.425C14.984 0.425 15.509 0.783333 15.8423 1.5C16.1756 2.2 16.5673 3.41667 17.0173 5.15C17.4673 6.88333 17.7506 7.98333 17.8673 8.45C18.0006 8.9 18.1756 9.53333 18.3923 10.35C18.609 11.1667 18.8256 11.9583 19.0423 12.725C19.0756 11.275 19.0923 10.0083 19.0923 8.925C19.0923 5.90833 19.0173 3.65 18.8673 2.15L18.7423 0.824999ZM28.1933 0.274999C28.6599 0.274999 29.0266 0.316665 29.2933 0.399999C29.5766 0.466665 29.8599 0.633332 30.1433 0.9C30.4433 1.16667 30.6683 1.56667 30.8183 2.1C31.1516 3.26667 31.3183 5.1 31.3183 7.6C31.3183 8.45 31.3099 9.03333 31.2933 9.35C31.5266 9.26667 31.8849 9.225 32.3683 9.225C32.7183 8.225 33.0266 6.91667 33.2933 5.3C33.5766 3.68333 33.7183 2.175 33.7183 0.775C34.1516 0.441666 34.8599 0.274999 35.8433 0.274999C36.8433 0.274999 37.5683 0.491666 38.0183 0.924999C38.4849 1.35833 38.7183 1.94167 38.7183 2.675C38.7183 4.025 38.4349 5.475 37.8683 7.025C37.3183 8.55833 36.6016 9.79167 35.7183 10.725L38.7933 16.125C38.7599 16.2417 38.6349 16.4333 38.4183 16.7C38.2016 16.9667 37.9849 17.1833 37.7683 17.35C37.1683 17.7833 36.4349 18 35.5683 18C34.3016 18 33.4516 17.4833 33.0183 16.45L31.1683 11.975C31.1349 14.0583 30.9183 15.6167 30.5183 16.65C30.3683 17.05 30.1349 17.3583 29.8183 17.575C29.5016 17.775 29.2183 17.9 28.9683 17.95C28.7183 17.9833 28.3683 18 27.9183 18C27.4683 18 27.0599 17.95 26.6933 17.85C26.3266 17.7333 26.0683 17.6167 25.9183 17.5L25.7183 17.35C25.8849 15.5167 25.9683 13.475 25.9683 11.225C25.9683 7.175 25.8683 4.16667 25.6683 2.2L25.5433 1.125C26.2266 0.558332 27.1099 0.274999 28.1933 0.274999ZM54.3169 0.775C55.1836 0.308333 56.0669 0.0749998 56.9669 0.0749998C57.8669 0.0749998 58.5002 0.308333 58.8669 0.775C59.2336 1.225 59.4169 2.125 59.4169 3.475C59.4169 4.10833 59.2752 6.375 58.9919 10.275C58.7252 14.175 58.5919 16.4833 58.5919 17.2C57.8752 17.7167 56.9919 17.975 55.9419 17.975C54.8919 17.975 54.3586 17.5417 54.3419 16.675C54.3752 15.6917 54.4086 14.5333 54.4419 13.2H50.8669C50.8502 14.05 50.8419 15.45 50.8419 17.4C50.2752 17.7833 49.4086 17.975 48.2419 17.975C47.7252 17.975 47.3086 17.8417 46.9919 17.575C46.6752 17.3083 46.5002 16.9417 46.4669 16.475L45.6669 1.375C46.8836 0.641666 47.9252 0.274999 48.7919 0.274999C49.6752 0.274999 50.2836 0.516666 50.6169 1C50.9669 1.48333 51.1419 2.40833 51.1419 3.775C51.1419 4.125 51.1086 5.16667 51.0419 6.9C50.9752 8.63333 50.9336 9.825 50.9169 10.475C51.3502 10.3083 51.7336 10.2167 52.0669 10.2C52.4002 10.1833 53.2086 10.1583 54.4919 10.125C54.4919 6.10833 54.4502 3.30833 54.3669 1.725L54.3169 0.775ZM60.331 10.3C60.331 8.9 60.4976 7.65 60.831 6.55C61.1643 5.43333 61.606 4.55 62.156 3.9C63.206 2.63333 64.3226 1.85833 65.506 1.575C66.1893 0.708332 67.206 0.274999 68.556 0.274999C70.406 0.274999 71.856 0.983332 72.906 2.4C73.956 3.81667 74.481 5.94167 74.481 8.775C74.481 11.5917 73.7726 13.8417 72.356 15.525C70.9393 17.1917 69.1643 18.025 67.031 18.025C64.9143 18.025 63.2643 17.375 62.081 16.075C60.9143 14.775 60.331 12.85 60.331 10.3ZM67.681 15.1C68.3143 15.1 68.806 14.675 69.156 13.825C69.5226 12.975 69.706 11.75 69.706 10.15C69.706 8.55 69.356 7.275 68.656 6.325C67.9726 5.375 67.156 4.675 66.206 4.225C65.7893 5.825 65.581 7.55 65.581 9.4C65.581 13.2 66.281 15.1 67.681 15.1ZM75.5897 9.075C75.5897 8.275 75.6564 7.49167 75.7897 6.725C75.9231 5.94167 76.0564 5.36667 76.1897 5L76.3897 4.425L75.9647 2.525C76.0814 2.175 76.3647 1.83333 76.8147 1.5C77.3147 1.15 78.0897 0.974999 79.1397 0.974999C80.1897 0.974999 80.9231 1.15 81.3397 1.5C81.7731 1.85 81.9897 2.35833 81.9897 3.025C81.9897 3.375 81.8481 4.25 81.5647 5.65C81.2814 7.05 81.1397 8.53333 81.1397 10.1C81.1397 11.6667 81.2981 12.8917 81.6147 13.775C81.9481 14.6583 82.4064 15.1 82.9897 15.1C83.5897 15.1 84.0647 14.675 84.4147 13.825C84.7814 12.975 84.9647 11.725 84.9647 10.075C84.9647 8.425 84.8397 6.88333 84.5897 5.45C84.3564 4 84.1147 2.95833 83.8647 2.325L83.5147 1.375C83.5147 1.325 83.5731 1.225 83.6897 1.075C83.8231 0.924999 83.9647 0.799999 84.1147 0.699999C84.5147 0.466666 85.0397 0.349999 85.6897 0.349999C88.4397 0.349999 89.8147 2.81667 89.8147 7.75C89.8147 9.88333 89.5731 11.7083 89.0897 13.225C88.6064 14.725 87.7897 15.925 86.6397 16.825C85.5064 17.7083 84.0564 18.15 82.2897 18.15C79.9731 18.15 78.2731 17.3333 77.1897 15.7C76.1231 14.0667 75.5897 11.8583 75.5897 9.075ZM102.378 12.75C102.378 14.2833 101.853 15.5417 100.803 16.525C99.7532 17.5083 98.2449 18 96.2782 18C94.3116 18 92.9282 17.7167 92.1282 17.15C91.3282 16.5667 90.9282 15.925 90.9282 15.225C90.9282 14.5917 91.0116 14.1333 91.1782 13.85C91.4616 13.3667 91.7366 13.0417 92.0032 12.875C92.6532 13.3583 93.3949 13.8 94.2282 14.2C95.0782 14.6 95.7199 14.8 96.1532 14.8C96.5866 14.8 96.8949 14.7583 97.0782 14.675C97.2616 14.5917 97.3699 14.5083 97.4032 14.425C97.4366 14.325 97.4532 14.1917 97.4532 14.025C97.4532 13.7083 97.2282 13.4083 96.7782 13.125C96.3282 12.825 95.7782 12.525 95.1282 12.225C94.4949 11.9083 93.8616 11.5583 93.2282 11.175C92.5949 10.775 92.0532 10.2333 91.6032 9.55C91.1532 8.86667 90.9282 8.11667 90.9282 7.3C90.9282 6.46667 91.1199 5.7 91.5032 5C91.8866 4.3 92.3699 3.725 92.9532 3.275C92.9866 2.475 93.4616 1.75833 94.3782 1.125C95.3116 0.491666 96.5866 0.174999 98.2032 0.174999C101.17 0.174999 102.653 1.41667 102.653 3.9C102.653 5.41667 101.987 6.45 100.653 7C99.7366 6 98.0282 5.26667 95.5282 4.8C95.5949 5.76667 96.0782 6.56667 96.9782 7.2C97.3949 7.48333 97.8449 7.75833 98.3282 8.025C98.8116 8.275 99.2866 8.54167 99.7532 8.825C100.237 9.10833 100.678 9.41667 101.078 9.75C101.945 10.5 102.378 11.5 102.378 12.75ZM112.544 6.275L109.019 6.2C108.902 6.91667 108.844 7.81667 108.844 8.9V9.075C111.844 9.025 113.494 9 113.794 9C113.877 9.41667 113.919 9.78333 113.919 10.1C113.919 11.1833 113.419 11.725 112.419 11.725H108.944C109.077 12.9417 109.469 13.65 110.119 13.85C110.252 13.9 110.419 13.925 110.619 13.925C111.319 13.925 112.336 13.6583 113.669 13.125C114.119 13.3417 114.344 13.85 114.344 14.65C114.344 15.4333 113.961 16.1917 113.194 16.925C112.444 17.6417 111.194 18 109.444 18C107.777 18 106.411 17.5417 105.344 16.625C104.144 15.6083 103.544 13.8667 103.544 11.4C103.544 9.5 103.911 7.775 104.644 6.225L104.019 6.275C103.586 5.875 103.369 5.06667 103.369 3.85C103.369 1.38333 104.219 0.149999 105.919 0.149999C106.002 0.149999 106.269 0.149999 106.719 0.149999C107.169 0.149999 108.111 0.233332 109.544 0.399999C110.994 0.549999 112.502 0.624999 114.069 0.624999C114.269 1.125 114.369 1.925 114.369 3.025C114.369 4.10833 114.227 4.925 113.944 5.475C113.661 6.00833 113.194 6.275 112.544 6.275Z" fill="white"/>
</svg>
